<svg xmlns="http://www.w3.org/2000/svg" xmlns:xlink="http://www.w3.org/1999/xlink" width="500" zoomAndPan="magnify" viewBox="0 0 375 374.999991" height="500" preserveAspectRatio="xMidYMid meet" version="1.0"><defs><g/><clipPath id="id1"><path d="M 91.875 176.0625 L 302.625 176.0625 L 302.625 198.5625 L 91.875 198.5625 Z M 91.875 176.0625 " clip-rule="nonzero"/></clipPath></defs><g fill="#ffffff" fill-opacity="1"><g transform="translate(97.121379, 235.688941)"><g><path d="M 57.625 -53.3125 C 67.019531 -52.832031 74.757812 -51.347656 80.84375 -48.859375 C 86.925781 -46.367188 91.351562 -43.28125 94.125 -39.59375 C 96.90625 -35.90625 98.296875 -32 98.296875 -27.875 C 98.296875 -18.488281 94.5625 -11.492188 87.09375 -6.890625 C 79.625 -2.296875 68.988281 0 55.1875 0 C 52.40625 0 50.054688 -0.046875 48.140625 -0.140625 C 41.628906 -0.335938 35.257812 -0.4375 29.03125 -0.4375 C 17.820312 -0.4375 9.488281 -0.289062 4.03125 0 L 4.03125 -2.875 C 7.09375 -3.0625 9.316406 -3.441406 10.703125 -4.015625 C 12.097656 -4.597656 13.035156 -5.703125 13.515625 -7.328125 C 13.992188 -8.953125 14.234375 -11.585938 14.234375 -15.234375 L 14.234375 -86.515625 C 14.234375 -90.160156 13.96875 -92.796875 13.4375 -94.421875 C 12.90625 -96.046875 11.96875 -97.144531 10.625 -97.71875 C 9.289062 -98.300781 7.09375 -98.6875 4.03125 -98.875 L 4.03125 -101.75 C 9.488281 -101.46875 17.726562 -101.328125 28.75 -101.328125 L 45.265625 -101.46875 C 47.179688 -101.5625 49.382812 -101.609375 51.875 -101.609375 C 64.53125 -101.609375 74.1875 -99.570312 80.84375 -95.5 C 87.5 -91.425781 90.828125 -85.941406 90.828125 -79.046875 C 90.828125 -75.503906 89.582031 -71.9375 87.09375 -68.34375 C 84.601562 -64.75 80.863281 -61.609375 75.875 -58.921875 C 70.894531 -56.242188 64.8125 -54.472656 57.625 -53.609375 Z M 51.15625 -98.875 C 48.957031 -98.875 47.304688 -98.535156 46.203125 -97.859375 C 45.097656 -97.191406 44.351562 -95.992188 43.96875 -94.265625 C 43.59375 -92.546875 43.40625 -89.960938 43.40625 -86.515625 L 43.40625 -54.03125 L 47.28125 -54.03125 C 52.457031 -54.03125 56.070312 -56.160156 58.125 -60.421875 C 60.1875 -64.691406 61.21875 -70.375 61.21875 -77.46875 C 61.21875 -84.75 60.425781 -90.132812 58.84375 -93.625 C 57.269531 -97.125 54.707031 -98.875 51.15625 -98.875 Z M 52.75 -3.3125 C 63 -3.3125 68.125 -11.691406 68.125 -28.453125 C 68.125 -36.023438 66.300781 -41.773438 62.65625 -45.703125 C 59.019531 -49.628906 53.273438 -51.59375 45.421875 -51.59375 L 43.40625 -51.59375 L 43.40625 -15.234375 C 43.40625 -11.785156 43.644531 -9.242188 44.125 -7.609375 C 44.601562 -5.984375 45.488281 -4.859375 46.78125 -4.234375 C 48.070312 -3.617188 50.0625 -3.3125 52.75 -3.3125 Z M 52.75 -3.3125 "/></g></g></g><g fill="#ffffff" fill-opacity="1"><g transform="translate(203.007678, 235.688941)"><g><path d="M 43.40625 -41.109375 L 43.40625 -16.671875 C 43.40625 -12.648438 43.8125 -9.726562 44.625 -7.90625 C 45.4375 -6.082031 46.921875 -4.859375 49.078125 -4.234375 C 51.234375 -3.617188 54.660156 -3.3125 59.359375 -3.3125 L 59.359375 0 C 46.421875 -0.289062 36.550781 -0.4375 29.75 -0.4375 C 25.25 -0.4375 18.972656 -0.335938 10.921875 -0.140625 L 4.03125 0 L 4.03125 -2.875 C 7.09375 -3.0625 9.316406 -3.441406 10.703125 -4.015625 C 12.097656 -4.597656 13.035156 -5.703125 13.515625 -7.328125 C 13.992188 -8.953125 14.234375 -11.585938 14.234375 -15.234375 L 14.234375 -86.515625 C 14.234375 -90.160156 13.96875 -92.796875 13.4375 -94.421875 C 12.90625 -96.046875 11.96875 -97.144531 10.625 -97.71875 C 9.289062 -98.300781 7.09375 -98.6875 4.03125 -98.875 L 4.03125 -101.75 C 9.488281 -101.46875 17.726562 -101.328125 28.75 -101.328125 L 45.265625 -101.46875 C 47.179688 -101.5625 49.382812 -101.609375 51.875 -101.609375 C 66.0625 -101.609375 76.816406 -99.046875 84.140625 -93.921875 C 91.472656 -88.796875 95.140625 -81.921875 95.140625 -73.296875 C 95.140625 -68.023438 93.703125 -62.96875 90.828125 -58.125 C 87.953125 -53.289062 83.066406 -49.242188 76.171875 -45.984375 C 69.273438 -42.734375 60.125 -41.109375 48.71875 -41.109375 Z M 51.15625 -98.875 C 48.957031 -98.875 47.304688 -98.535156 46.203125 -97.859375 C 45.097656 -97.191406 44.351562 -95.992188 43.96875 -94.265625 C 43.59375 -92.546875 43.40625 -89.960938 43.40625 -86.515625 L 43.40625 -43.984375 L 47.28125 -43.984375 C 53.988281 -43.984375 58.609375 -46.472656 61.140625 -51.453125 C 63.679688 -56.429688 64.953125 -63.1875 64.953125 -71.71875 C 64.953125 -81.007812 63.898438 -87.859375 61.796875 -92.265625 C 59.691406 -96.671875 56.144531 -98.875 51.15625 -98.875 Z M 51.15625 -98.875 "/></g></g></g><path stroke-linecap="butt" transform="matrix(0.000000000000000639, 2.253987, -2.666667, 0.000000000000000755, 186.796355, 113.727254)" fill="none" stroke-linejoin="miter" d="M -0.000306848 -0.000194837 L 70.544827 -0.000194837 " stroke="#ffffff" stroke-width="1" stroke-opacity="1" stroke-miterlimit="4"/><g clip-path="url(#id1)"><path fill="#000000" d="M 91.914062 176.0625 L 302.585938 176.0625 L 302.585938 198.5625 L 91.914062 198.5625 L 91.914062 176.0625 " fill-opacity="1" fill-rule="nonzero"/></g><g fill="#ffffff" fill-opacity="1"><g transform="translate(136.374341, 190.919783)"><g><path d="M 6.890625 -4.484375 C 7.460938 -4.359375 7.90625 -4.109375 8.21875 -3.734375 C 8.53125 -3.367188 8.6875 -2.898438 8.6875 -2.328125 C 8.6875 -1.578125 8.410156 -1 7.859375 -0.59375 C 7.304688 -0.195312 6.492188 0 5.421875 0 L 1.421875 0 L 1.421875 -8.6875 L 5.171875 -8.6875 C 6.140625 -8.6875 6.890625 -8.492188 7.421875 -8.109375 C 7.953125 -7.722656 8.21875 -7.171875 8.21875 -6.453125 C 8.21875 -5.972656 8.097656 -5.566406 7.859375 -5.234375 C 7.628906 -4.898438 7.304688 -4.648438 6.890625 -4.484375 Z M 2.328125 -7.9375 L 2.328125 -4.78125 L 5.109375 -4.78125 C 5.804688 -4.78125 6.34375 -4.914062 6.71875 -5.1875 C 7.101562 -5.457031 7.296875 -5.847656 7.296875 -6.359375 C 7.296875 -6.867188 7.101562 -7.257812 6.71875 -7.53125 C 6.34375 -7.800781 5.804688 -7.9375 5.109375 -7.9375 Z M 5.40625 -0.75 C 6.1875 -0.75 6.773438 -0.878906 7.171875 -1.140625 C 7.566406 -1.410156 7.765625 -1.828125 7.765625 -2.390625 C 7.765625 -3.484375 6.976562 -4.03125 5.40625 -4.03125 L 2.328125 -4.03125 L 2.328125 -0.75 Z M 5.40625 -0.75 "/></g></g></g><g fill="#ffffff" fill-opacity="1"><g transform="translate(147.222876, 190.919783)"><g><path d="M 5.21875 0.078125 C 4.351562 0.078125 3.570312 -0.113281 2.875 -0.5 C 2.175781 -0.882812 1.628906 -1.410156 1.234375 -2.078125 C 0.835938 -2.753906 0.640625 -3.507812 0.640625 -4.34375 C 0.640625 -5.1875 0.835938 -5.941406 1.234375 -6.609375 C 1.628906 -7.273438 2.175781 -7.800781 2.875 -8.1875 C 3.570312 -8.570312 4.351562 -8.765625 5.21875 -8.765625 C 6.082031 -8.765625 6.859375 -8.570312 7.546875 -8.1875 C 8.234375 -7.8125 8.773438 -7.285156 9.171875 -6.609375 C 9.578125 -5.941406 9.78125 -5.1875 9.78125 -4.34375 C 9.78125 -3.507812 9.578125 -2.753906 9.171875 -2.078125 C 8.773438 -1.398438 8.234375 -0.867188 7.546875 -0.484375 C 6.859375 -0.109375 6.082031 0.078125 5.21875 0.078125 Z M 5.21875 -0.75 C 5.90625 -0.75 6.523438 -0.898438 7.078125 -1.203125 C 7.628906 -1.515625 8.0625 -1.945312 8.375 -2.5 C 8.695312 -3.050781 8.859375 -3.664062 8.859375 -4.34375 C 8.859375 -5.019531 8.695312 -5.632812 8.375 -6.1875 C 8.0625 -6.738281 7.628906 -7.171875 7.078125 -7.484375 C 6.523438 -7.796875 5.90625 -7.953125 5.21875 -7.953125 C 4.53125 -7.953125 3.90625 -7.796875 3.34375 -7.484375 C 2.789062 -7.171875 2.351562 -6.738281 2.03125 -6.1875 C 1.707031 -5.632812 1.546875 -5.019531 1.546875 -4.34375 C 1.546875 -3.664062 1.707031 -3.050781 2.03125 -2.5 C 2.351562 -1.945312 2.789062 -1.515625 3.34375 -1.203125 C 3.90625 -0.898438 4.53125 -0.75 5.21875 -0.75 Z M 5.21875 -0.75 "/></g></g></g><g fill="#ffffff" fill-opacity="1"><g transform="translate(159.126281, 190.919783)"><g><path d="M 5.1875 0.078125 C 4.332031 0.078125 3.554688 -0.109375 2.859375 -0.484375 C 2.171875 -0.867188 1.628906 -1.398438 1.234375 -2.078125 C 0.835938 -2.753906 0.640625 -3.507812 0.640625 -4.34375 C 0.640625 -5.1875 0.835938 -5.941406 1.234375 -6.609375 C 1.628906 -7.285156 2.171875 -7.8125 2.859375 -8.1875 C 3.554688 -8.570312 4.335938 -8.765625 5.203125 -8.765625 C 5.847656 -8.765625 6.441406 -8.65625 6.984375 -8.4375 C 7.535156 -8.226562 8.003906 -7.914062 8.390625 -7.5 L 7.796875 -6.921875 C 7.117188 -7.609375 6.265625 -7.953125 5.234375 -7.953125 C 4.546875 -7.953125 3.921875 -7.789062 3.359375 -7.46875 C 2.796875 -7.15625 2.351562 -6.722656 2.03125 -6.171875 C 1.707031 -5.628906 1.546875 -5.019531 1.546875 -4.34375 C 1.546875 -3.664062 1.707031 -3.050781 2.03125 -2.5 C 2.351562 -1.957031 2.796875 -1.53125 3.359375 -1.21875 C 3.921875 -0.90625 4.546875 -0.75 5.234375 -0.75 C 6.273438 -0.75 7.128906 -1.09375 7.796875 -1.78125 L 8.390625 -1.203125 C 8.003906 -0.785156 7.535156 -0.46875 6.984375 -0.25 C 6.429688 -0.03125 5.832031 0.078125 5.1875 0.078125 Z M 5.1875 0.078125 "/></g></g></g><g fill="#ffffff" fill-opacity="1"><g transform="translate(169.540456, 190.919783)"><g><path d="M 6.875 -2.328125 L 2.03125 -2.328125 L 0.984375 0 L 0.03125 0 L 4 -8.6875 L 4.90625 -8.6875 L 8.875 0 L 7.90625 0 Z M 6.53125 -3.0625 L 4.453125 -7.734375 L 2.359375 -3.0625 Z M 6.53125 -3.0625 "/></g></g></g><g fill="#ffffff" fill-opacity="1"><g transform="translate(179.929808, 190.919783)"><g><path d="M 1.421875 -8.6875 L 4.953125 -8.6875 C 5.867188 -8.6875 6.679688 -8.503906 7.390625 -8.140625 C 8.097656 -7.773438 8.644531 -7.257812 9.03125 -6.59375 C 9.414062 -5.9375 9.609375 -5.1875 9.609375 -4.34375 C 9.609375 -3.5 9.414062 -2.75 9.03125 -2.09375 C 8.644531 -1.4375 8.097656 -0.921875 7.390625 -0.546875 C 6.679688 -0.179688 5.867188 0 4.953125 0 L 1.421875 0 Z M 4.90625 -0.796875 C 5.664062 -0.796875 6.332031 -0.945312 6.90625 -1.25 C 7.476562 -1.550781 7.921875 -1.96875 8.234375 -2.5 C 8.546875 -3.03125 8.703125 -3.644531 8.703125 -4.34375 C 8.703125 -5.039062 8.546875 -5.65625 8.234375 -6.1875 C 7.921875 -6.726562 7.476562 -7.148438 6.90625 -7.453125 C 6.332031 -7.753906 5.664062 -7.90625 4.90625 -7.90625 L 2.328125 -7.90625 L 2.328125 -0.796875 Z M 4.90625 -0.796875 "/></g></g></g><g fill="#ffffff" fill-opacity="1"><g transform="translate(191.671874, 190.919783)"><g><path d="M 5.21875 0.078125 C 4.351562 0.078125 3.570312 -0.113281 2.875 -0.5 C 2.175781 -0.882812 1.628906 -1.410156 1.234375 -2.078125 C 0.835938 -2.753906 0.640625 -3.507812 0.640625 -4.34375 C 0.640625 -5.1875 0.835938 -5.941406 1.234375 -6.609375 C 1.628906 -7.273438 2.175781 -7.800781 2.875 -8.1875 C 3.570312 -8.570312 4.351562 -8.765625 5.21875 -8.765625 C 6.082031 -8.765625 6.859375 -8.570312 7.546875 -8.1875 C 8.234375 -7.8125 8.773438 -7.285156 9.171875 -6.609375 C 9.578125 -5.941406 9.78125 -5.1875 9.78125 -4.34375 C 9.78125 -3.507812 9.578125 -2.753906 9.171875 -2.078125 C 8.773438 -1.398438 8.234375 -0.867188 7.546875 -0.484375 C 6.859375 -0.109375 6.082031 0.078125 5.21875 0.078125 Z M 5.21875 -0.75 C 5.90625 -0.75 6.523438 -0.898438 7.078125 -1.203125 C 7.628906 -1.515625 8.0625 -1.945312 8.375 -2.5 C 8.695312 -3.050781 8.859375 -3.664062 8.859375 -4.34375 C 8.859375 -5.019531 8.695312 -5.632812 8.375 -6.1875 C 8.0625 -6.738281 7.628906 -7.171875 7.078125 -7.484375 C 6.523438 -7.796875 5.90625 -7.953125 5.21875 -7.953125 C 4.53125 -7.953125 3.90625 -7.796875 3.34375 -7.484375 C 2.789062 -7.171875 2.351562 -6.738281 2.03125 -6.1875 C 1.707031 -5.632812 1.546875 -5.019531 1.546875 -4.34375 C 1.546875 -3.664062 1.707031 -3.050781 2.03125 -2.5 C 2.351562 -1.945312 2.789062 -1.515625 3.34375 -1.203125 C 3.90625 -0.898438 4.53125 -0.75 5.21875 -0.75 Z M 5.21875 -0.75 "/></g></g></g><g fill="#ffffff" fill-opacity="1"><g transform="translate(203.57528, 190.919783)"><g><path d="M 3.8125 0.078125 C 3.164062 0.078125 2.546875 -0.0234375 1.953125 -0.234375 C 1.359375 -0.441406 0.898438 -0.71875 0.578125 -1.0625 L 0.9375 -1.765625 C 1.257812 -1.453125 1.679688 -1.195312 2.203125 -1 C 2.722656 -0.800781 3.257812 -0.703125 3.8125 -0.703125 C 4.59375 -0.703125 5.175781 -0.84375 5.5625 -1.125 C 5.957031 -1.414062 6.15625 -1.789062 6.15625 -2.25 C 6.15625 -2.59375 6.046875 -2.867188 5.828125 -3.078125 C 5.617188 -3.285156 5.359375 -3.441406 5.046875 -3.546875 C 4.742188 -3.660156 4.320312 -3.785156 3.78125 -3.921875 C 3.125 -4.085938 2.597656 -4.25 2.203125 -4.40625 C 1.816406 -4.5625 1.484375 -4.796875 1.203125 -5.109375 C 0.929688 -5.421875 0.796875 -5.847656 0.796875 -6.390625 C 0.796875 -6.828125 0.910156 -7.222656 1.140625 -7.578125 C 1.367188 -7.941406 1.722656 -8.226562 2.203125 -8.4375 C 2.691406 -8.65625 3.289062 -8.765625 4 -8.765625 C 4.5 -8.765625 4.984375 -8.695312 5.453125 -8.5625 C 5.929688 -8.425781 6.347656 -8.238281 6.703125 -8 L 6.390625 -7.265625 C 6.023438 -7.503906 5.632812 -7.679688 5.21875 -7.796875 C 4.800781 -7.921875 4.394531 -7.984375 4 -7.984375 C 3.238281 -7.984375 2.664062 -7.835938 2.28125 -7.546875 C 1.894531 -7.253906 1.703125 -6.875 1.703125 -6.40625 C 1.703125 -6.0625 1.804688 -5.78125 2.015625 -5.5625 C 2.222656 -5.351562 2.488281 -5.191406 2.8125 -5.078125 C 3.132812 -4.972656 3.5625 -4.851562 4.09375 -4.71875 C 4.738281 -4.5625 5.253906 -4.40625 5.640625 -4.25 C 6.035156 -4.101562 6.367188 -3.875 6.640625 -3.5625 C 6.921875 -3.25 7.0625 -2.828125 7.0625 -2.296875 C 7.0625 -1.859375 6.941406 -1.457031 6.703125 -1.09375 C 6.460938 -0.738281 6.097656 -0.453125 5.609375 -0.234375 C 5.117188 -0.0234375 4.519531 0.078125 3.8125 0.078125 Z M 3.8125 0.078125 "/></g></g></g><g fill="#ffffff" fill-opacity="1"><g transform="translate(212.69879, 190.919783)"><g/></g></g><g fill="#ffffff" fill-opacity="1"><g transform="translate(217.441501, 190.919783)"><g><path d="M 4.671875 -8.6875 C 5.773438 -8.6875 6.640625 -8.421875 7.265625 -7.890625 C 7.898438 -7.367188 8.21875 -6.644531 8.21875 -5.71875 C 8.21875 -4.789062 7.898438 -4.0625 7.265625 -3.53125 C 6.640625 -3.007812 5.773438 -2.75 4.671875 -2.75 L 2.328125 -2.75 L 2.328125 0 L 1.421875 0 L 1.421875 -8.6875 Z M 4.640625 -3.546875 C 5.503906 -3.546875 6.160156 -3.734375 6.609375 -4.109375 C 7.066406 -4.492188 7.296875 -5.03125 7.296875 -5.71875 C 7.296875 -6.414062 7.066406 -6.953125 6.609375 -7.328125 C 6.160156 -7.710938 5.503906 -7.90625 4.640625 -7.90625 L 2.328125 -7.90625 L 2.328125 -3.546875 Z M 4.640625 -3.546875 "/></g></g></g><g fill="#ffffff" fill-opacity="1"><g transform="translate(227.84327, 190.919783)"><g><path d="M 7.5625 -0.796875 L 7.5625 0 L 1.421875 0 L 1.421875 -8.6875 L 7.375 -8.6875 L 7.375 -7.90625 L 2.328125 -7.90625 L 2.328125 -4.8125 L 6.828125 -4.8125 L 6.828125 -4.03125 L 2.328125 -4.03125 L 2.328125 -0.796875 Z M 7.5625 -0.796875 "/></g></g></g><g fill="#ffffff" fill-opacity="1"><g transform="translate(237.636934, 190.919783)"><g><path d="M 7.359375 0 L 5.359375 -2.796875 C 5.140625 -2.765625 4.910156 -2.75 4.671875 -2.75 L 2.328125 -2.75 L 2.328125 0 L 1.421875 0 L 1.421875 -8.6875 L 4.671875 -8.6875 C 5.773438 -8.6875 6.640625 -8.421875 7.265625 -7.890625 C 7.898438 -7.367188 8.21875 -6.644531 8.21875 -5.71875 C 8.21875 -5.039062 8.046875 -4.46875 7.703125 -4 C 7.359375 -3.53125 6.867188 -3.191406 6.234375 -2.984375 L 8.359375 0 Z M 4.640625 -3.546875 C 5.503906 -3.546875 6.160156 -3.734375 6.609375 -4.109375 C 7.066406 -4.492188 7.296875 -5.03125 7.296875 -5.71875 C 7.296875 -6.414062 7.066406 -6.953125 6.609375 -7.328125 C 6.160156 -7.710938 5.503906 -7.90625 4.640625 -7.90625 L 2.328125 -7.90625 L 2.328125 -3.546875 Z M 4.640625 -3.546875 "/></g></g></g><g fill="#ffffff" fill-opacity="1"><g transform="translate(248.100759, 190.919783)"><g><path d="M 4.921875 0.078125 C 3.796875 0.078125 2.914062 -0.242188 2.28125 -0.890625 C 1.65625 -1.535156 1.34375 -2.476562 1.34375 -3.71875 L 1.34375 -8.6875 L 2.265625 -8.6875 L 2.265625 -3.75 C 2.265625 -2.738281 2.488281 -1.984375 2.9375 -1.484375 C 3.394531 -0.992188 4.054688 -0.75 4.921875 -0.75 C 5.785156 -0.75 6.445312 -0.992188 6.90625 -1.484375 C 7.363281 -1.984375 7.59375 -2.738281 7.59375 -3.75 L 7.59375 -8.6875 L 8.484375 -8.6875 L 8.484375 -3.71875 C 8.484375 -2.476562 8.171875 -1.535156 7.546875 -0.890625 C 6.921875 -0.242188 6.046875 0.078125 4.921875 0.078125 Z M 5.8125 -10.9375 L 6.984375 -10.9375 L 4.96875 -9.40625 L 4.109375 -9.40625 Z M 5.8125 -10.9375 "/></g></g></g></svg>